<svg width="68" height="70" viewBox="0 0 68 70" fill="none" xmlns="http://www.w3.org/2000/svg">
<rect x="7" y="7" width="61" height="63" rx="20" fill="#FF8E00"/>
<rect x="1" y="1" width="59" height="60" rx="19" stroke="white" stroke-width="2"/>
<path d="M47.8239 42.0085C47.6379 41.7161 47.3191 41.4768 47.0003 41.3439C46.522 41.1578 45.9906 41.1313 45.4858 41.1313C42.9881 41.1313 38.976 42.2212 37.5412 42.6465C37.2224 41.9022 36.3456 41.211 34.22 41.211C32.9446 41.211 31.7489 41.4768 31.6958 41.4768C31.2972 41.5566 30.9518 41.53 30.4736 41.3971C29.517 41.1313 28.7199 40.5464 27.8697 39.9616C26.9929 39.3502 26.116 38.7388 25.0267 38.3932C23.2464 37.8615 21.5725 37.7286 20.0846 38.021C19.3672 38.1539 18.6764 38.4198 17.9855 38.659C17.3744 38.8983 16.7899 39.1109 16.1788 39.2438C16.0459 39.2704 15.9131 39.3236 15.7536 39.3502C15.4348 39.4299 15.0894 39.5363 14.8502 39.5363C14.7705 39.5363 14.744 39.5363 14.7174 39.5097L14 39.297C14 39.297 14 44.6402 14 46.4213C14 46.8467 14.372 47.1391 14.8237 47.1391C15.0362 47.1391 15.2754 47.0593 15.4879 47.0062C15.5942 46.9796 15.7271 46.9264 15.7802 46.9264L15.8865 46.8998C16.7899 46.7669 17.6933 46.634 18.5701 46.634C19.8189 46.634 26.0363 48.229 28.3214 48.8404H28.3479C28.8528 48.9467 29.331 48.9999 29.8093 48.9999C30.819 48.9999 31.3769 48.7607 31.4301 48.7341C32.2006 48.3885 33.6354 47.9897 33.6354 47.9897C36.1065 47.2986 45.7515 44.2681 45.8312 44.2415C47.1597 43.8693 47.8505 43.3908 47.9834 42.806C48.0365 42.5136 47.9568 42.2478 47.8239 42.0085ZM45.5123 43.2048C45.406 43.2313 35.7876 46.2618 33.3166 46.953C33.2634 46.9796 31.8021 47.3783 30.9518 47.7771C30.9518 47.7771 30.5533 47.9632 29.7827 47.9632C29.4107 47.9632 28.9856 47.91 28.5605 47.8302C27.6305 47.591 20.1643 45.5972 18.5701 45.5972C17.6136 45.5972 16.657 45.7302 15.7271 45.8897L15.6208 45.9162C15.4614 45.9428 15.3285 45.996 15.1691 46.0226H15.1425C15.1425 43.763 15.1425 41.6363 15.116 40.6262C15.4348 40.5996 15.7536 40.4933 16.0459 40.4135C16.1788 40.3869 16.3116 40.3338 16.4179 40.3072C17.1087 40.1477 17.7464 39.9084 18.3841 39.6958C19.0483 39.4565 19.6595 39.2173 20.2972 39.1109C21.5991 38.8451 23.1136 38.978 24.7078 39.4565C25.6378 39.7223 26.4083 40.2806 27.232 40.8654C28.1088 41.4768 29.0388 42.1148 30.1547 42.4604C30.7924 42.6465 31.3238 42.6731 31.8818 42.5402C31.9349 42.5402 33.0243 42.3009 34.1668 42.3009C35.2031 42.3009 36.4784 42.487 36.5847 43.3908L36.6113 43.7098C36.5316 43.7364 36.4253 43.7896 36.3456 43.8162C35.8407 44.0023 35.3359 44.1086 34.8045 44.2415C34.2731 44.3478 33.7417 44.4807 33.2103 44.6137C32.7055 44.7732 32.2006 44.8795 31.7224 44.7997C31.2441 44.72 30.6861 44.5605 30.1547 44.4807C29.6233 44.401 29.0653 44.3212 28.5339 44.2947C28.0025 44.2681 27.4445 44.2681 26.8866 44.2947C26.3552 44.3478 25.8238 44.3744 25.2658 44.3213C25.7706 44.5073 26.3286 44.5339 26.8866 44.5605C27.418 44.5871 27.9494 44.6402 28.4808 44.6934C29.0122 44.7732 29.5436 44.8529 30.0484 44.9858C30.3141 45.039 30.5798 45.0922 30.819 45.1719C31.0847 45.2251 31.3504 45.3048 31.6426 45.358C32.2272 45.4377 32.8383 45.3048 33.3431 45.1187C33.848 44.9592 34.3528 44.8263 34.8842 44.6668C35.4156 44.5073 35.9205 44.3212 36.4253 44.082C36.4784 44.0554 36.5581 44.1086 36.6113 44.0554L37.2224 43.8693C37.2755 43.8428 42.5099 42.2478 45.3795 42.2478C46.3891 42.2478 46.708 42.4604 46.7611 42.5668L46.7877 42.6465C46.7877 42.7528 46.4423 42.9389 45.5123 43.2048Z" fill="#002100"/>
<path d="M31.0056 26.165C27.764 26.165 25.1602 28.7702 25.1602 32.0134C25.1602 35.2565 27.764 37.8617 31.0056 37.8617C34.2472 37.8617 36.8511 35.2565 36.8511 32.0134C36.8511 28.7702 34.2472 26.165 31.0056 26.165ZM31.0056 36.7983C28.3752 36.7983 26.223 34.6451 26.223 32.0134C26.223 29.3816 28.3752 27.2284 31.0056 27.2284C33.6361 27.2284 35.7883 29.3816 35.7883 32.0134C35.7883 34.6451 33.6361 36.7983 31.0056 36.7983Z" fill="#002100"/>
<path d="M31.5366 31.5614C30.9254 31.3222 30.6863 31.1627 30.7129 30.9234C30.7394 30.7107 30.8989 30.5247 31.3506 30.5512C31.882 30.6044 32.2008 30.7639 32.3602 30.8702L32.6259 30.0993C32.3868 29.9664 32.068 29.8601 31.6163 29.8069L31.6428 29.1955L30.952 29.1423L30.9254 29.8069C30.1549 29.8867 29.6766 30.3386 29.6501 30.9766C29.6235 31.6412 30.1018 32.0399 30.8457 32.3323C31.3771 32.545 31.5897 32.7311 31.5631 32.9969C31.5366 33.2627 31.2443 33.4222 30.8457 33.3957C30.394 33.3691 29.9955 33.2096 29.7032 33.0235L29.4375 33.821C29.6766 33.9805 30.1283 34.14 30.6066 34.1932L30.5535 34.8577L31.2443 34.8843L31.2974 34.1666C32.1211 34.0868 32.5994 33.5817 32.6259 32.9437C32.6525 32.3057 32.3602 31.907 31.5366 31.5614Z" fill="#002100"/>
<path d="M14.1878 21.9914C14.3738 22.2838 14.6926 22.5231 15.0115 22.656C15.4897 22.8421 16.0211 22.8686 16.526 22.8686C19.0236 22.8686 23.0357 21.7787 24.4705 21.3534C24.7893 22.0977 25.6661 22.7889 27.7918 22.7889C29.0671 22.7889 30.2628 22.5231 30.3159 22.5231C30.7145 22.4433 31.0599 22.4699 31.5382 22.6028C32.4947 22.8686 33.2918 23.4535 34.142 24.0383C35.0189 24.6497 35.8957 25.2611 36.9851 25.6067C38.7653 26.1384 40.4392 26.2713 41.9271 25.9789C42.6445 25.846 43.3354 25.5801 44.0262 25.3409C44.6373 25.1016 45.2218 24.889 45.833 24.7561C45.9658 24.7295 46.0987 24.6763 46.2581 24.6497C46.5769 24.57 46.9223 24.4636 47.1615 24.4636C47.2412 24.4636 47.2678 24.4636 47.2943 24.4902L47.9851 24.7029C47.9851 24.7029 47.9851 19.3597 47.9851 17.5786C47.9851 17.1532 47.6132 16.8608 47.1615 16.8608C46.9489 16.8608 46.7098 16.9406 46.4972 16.9937C46.3909 17.0203 46.2581 17.0735 46.2049 17.0735L46.0987 17.1001C45.1953 17.233 44.2919 17.3659 43.4151 17.3659C42.1663 17.3659 35.9488 15.7709 33.6638 15.1595C33.1589 15.0532 32.6807 15 32.2024 15C31.1927 15 30.6348 15.2392 30.5816 15.2658C29.8111 15.6114 28.3763 16.0102 28.3763 16.0102C25.9053 16.7013 16.2603 19.7318 16.1806 19.7584C14.852 20.1306 14.1612 20.6091 14.0284 21.1939C13.9752 21.4863 14.0549 21.7521 14.1878 21.9914ZM16.4994 20.7952C16.6057 20.7686 26.2241 17.7381 28.6951 17.0469C28.7483 17.0203 30.2096 16.6216 31.0599 16.2228C31.0599 16.2228 31.4585 16.0367 32.229 16.0367C32.601 16.0367 33.0261 16.0899 33.4512 16.1697C34.3812 16.4089 41.8474 18.4027 43.4416 18.4027C44.3982 18.4027 45.3547 18.2697 46.2847 18.1102L46.3909 18.0837C46.5504 18.0571 46.6832 18.0039 46.8426 17.9773H46.8692C46.8692 20.2369 46.8692 22.3636 46.8958 23.3737C46.5769 23.4003 46.2581 23.5066 45.9658 23.5864C45.833 23.613 45.7001 23.6661 45.5938 23.6927C44.903 23.8522 44.2653 24.0915 43.6276 24.3041C42.9634 24.5434 42.3523 24.7826 41.7146 24.889C40.4126 25.1548 38.8981 25.0219 37.3039 24.5434C36.3739 24.2776 35.6034 23.7193 34.7797 23.1345C33.9029 22.5231 32.973 21.8851 31.857 21.5395C31.2193 21.3534 30.6879 21.3268 30.1299 21.4597C30.0768 21.4597 28.9874 21.699 27.8449 21.699C26.8087 21.699 25.5333 21.5129 25.427 20.6091L25.4004 20.2901C25.4801 20.2635 25.5864 20.2103 25.6661 20.1837C26.171 19.9977 26.6758 19.8913 27.2072 19.7584C27.7386 19.6521 28.27 19.5192 28.8014 19.3862C29.3063 19.2267 29.8111 19.1204 30.2894 19.2002C30.7676 19.2799 31.3256 19.4394 31.857 19.5192C32.3884 19.5989 32.9464 19.6787 33.4778 19.7052C34.0092 19.7318 34.5672 19.7318 35.1251 19.7052C35.6566 19.6521 36.188 19.6255 36.7459 19.6787C36.2411 19.4926 35.6831 19.466 35.1251 19.4394C34.5937 19.4128 34.0623 19.3597 33.5309 19.3065C32.9995 19.2267 32.4681 19.147 31.9633 19.0141C31.6976 18.9609 31.4319 18.9077 31.1927 18.828C30.927 18.7748 30.6613 18.6951 30.3691 18.6419C29.7845 18.5622 29.1734 18.6951 28.6686 18.8812C28.1637 19.0407 27.6589 19.1736 27.1275 19.3331C26.5961 19.4926 26.0913 19.6787 25.5864 19.9179C25.5333 19.9445 25.4536 19.8913 25.4004 19.9445L24.7893 20.1306C24.7362 20.1572 19.5018 21.7521 16.6322 21.7521C15.6226 21.7521 15.3037 21.5395 15.2506 21.4332L15.224 21.3534C15.224 21.2471 15.5694 21.061 16.4994 20.7952Z" fill="#002100"/>
</svg>
