<svg width="164" height="87" viewBox="0 0 164 87" fill="none" xmlns="http://www.w3.org/2000/svg">
<path d="M34.3558 41.7386L28.7308 42.3523C28.5717 41.7841 28.2933 41.25 27.8956 40.75C27.5092 40.25 26.9865 39.8466 26.3274 39.5398C25.6683 39.233 24.8615 39.0795 23.907 39.0795C22.6229 39.0795 21.5433 39.358 20.6683 39.9148C19.8047 40.4716 19.3786 41.1932 19.3899 42.0795C19.3786 42.8409 19.657 43.4602 20.2251 43.9375C20.8047 44.4148 21.7592 44.8068 23.0888 45.1136L27.5547 46.0682C30.032 46.6023 31.8729 47.4489 33.0774 48.608C34.2933 49.767 34.907 51.2841 34.9183 53.1591C34.907 54.8068 34.424 56.2614 33.4695 57.5227C32.5263 58.7727 31.2138 59.75 29.532 60.4545C27.8501 61.1591 25.9183 61.5114 23.7365 61.5114C20.532 61.5114 17.9524 60.8409 15.9979 59.5C14.0433 58.1477 12.8786 56.267 12.5036 53.858L18.5206 53.2784C18.7933 54.4602 19.3729 55.3523 20.2592 55.9545C21.1456 56.5568 22.299 56.858 23.7195 56.858C25.1854 56.858 26.3615 56.5568 27.2479 55.9545C28.1456 55.3523 28.5945 54.608 28.5945 53.7216C28.5945 52.9716 28.3047 52.3523 27.7251 51.8636C27.157 51.375 26.2706 51 25.0661 50.7386L20.6001 49.8011C18.0888 49.2784 16.2308 48.3977 15.0263 47.1591C13.8217 45.9091 13.2251 44.3295 13.2365 42.4205C13.2251 40.8068 13.6626 39.4091 14.549 38.2273C15.4467 37.0341 16.6911 36.1136 18.282 35.4659C19.8842 34.8068 21.7308 34.4773 23.8217 34.4773C26.8899 34.4773 29.3047 35.1307 31.0661 36.4375C32.8388 37.7443 33.9354 39.5114 34.3558 41.7386ZM45.4098 61L38.0121 34.8182H44.3018L48.9041 53.2273H49.1428L53.8473 34.8182H60.0689L64.7734 53.125H65.0291L69.5632 34.8182H75.87L68.4553 61H62.0291L57.12 43.3068H56.7621L51.853 61H45.4098ZM80.1783 61V34.8182H86.3487V61H80.1783ZM83.2805 31.1023C82.3033 31.1023 81.4624 30.7784 80.7578 30.1307C80.0533 29.4716 79.701 28.6818 79.701 27.7614C79.701 26.8295 80.0533 26.0398 80.7578 25.392C81.4624 24.733 82.3033 24.4034 83.2805 24.4034C84.2692 24.4034 85.1101 24.733 85.8033 25.392C86.5078 26.0398 86.8601 26.8295 86.8601 27.7614C86.8601 28.6818 86.5078 29.4716 85.8033 30.1307C85.1101 30.7784 84.2692 31.1023 83.2805 31.1023ZM105.955 34.8182V39.5909H90.478V34.8182H105.955ZM94.3473 61V32.3466C94.3473 30.5852 94.7109 29.1193 95.4382 27.9489C96.1768 26.7784 97.1655 25.9034 98.4041 25.3239C99.6428 24.7443 101.018 24.4545 102.529 24.4545C103.597 24.4545 104.546 24.5398 105.376 24.7102C106.205 24.8807 106.819 25.0341 107.217 25.1705L105.989 29.9432C105.728 29.8636 105.398 29.7841 105.001 29.7045C104.603 29.6136 104.16 29.5682 103.671 29.5682C102.523 29.5682 101.711 29.8466 101.234 30.4034C100.768 30.9489 100.535 31.733 100.535 32.7557V61H94.3473ZM123.862 34.8182V39.5909H108.81V34.8182H123.862ZM112.526 28.5455H118.697V53.125C118.697 53.9545 118.822 54.5909 119.072 55.0341C119.333 55.4659 119.674 55.7614 120.094 55.9205C120.515 56.0795 120.981 56.1591 121.492 56.1591C121.879 56.1591 122.231 56.1307 122.549 56.0739C122.879 56.017 123.129 55.9659 123.299 55.9205L124.339 60.7443C124.009 60.858 123.538 60.983 122.924 61.1193C122.322 61.2557 121.583 61.3352 120.708 61.358C119.163 61.4034 117.771 61.1705 116.532 60.6591C115.293 60.1364 114.31 59.3295 113.583 58.2386C112.867 57.1477 112.515 55.7841 112.526 54.1477V28.5455ZM132.857 70.8182C132.016 70.8182 131.238 70.75 130.522 70.6136C129.817 70.4886 129.255 70.3409 128.835 70.1705L130.266 65.3636C131.164 65.625 131.965 65.75 132.67 65.7386C133.374 65.7273 133.994 65.5057 134.528 65.0739C135.073 64.6534 135.533 63.9489 135.908 62.9602L136.437 61.5455L126.942 34.8182H133.488L139.522 54.5909H139.795L145.846 34.8182H152.408L141.925 64.1705C141.437 65.5568 140.789 66.7443 139.982 67.733C139.175 68.733 138.187 69.4943 137.016 70.017C135.857 70.5511 134.471 70.8182 132.857 70.8182Z" fill="#007A6D"/>
</svg>
