<svg width="68" height="70" viewBox="0 0 68 70" fill="none" xmlns="http://www.w3.org/2000/svg">
<rect x="7" y="7" width="61" height="63" rx="20" fill="#FF8E00"/>
<rect x="1" y="1" width="59" height="60" rx="19" stroke="white" stroke-width="2"/>
<path fill-rule="evenodd" clip-rule="evenodd" d="M27.7598 26.8659L30.5128 24.6535C30.6182 24.5693 30.7501 24.5239 30.8858 24.5251C31.0216 24.5262 31.1527 24.5739 31.2566 24.6599L34.0036 26.8659V18.6526H27.7598V26.8659ZM19.4647 45.2393C19.3865 45.2414 19.3087 45.228 19.2359 45.2C19.163 45.172 19.0966 45.13 19.0405 45.0763C18.9845 45.0226 18.9399 44.9585 18.9095 44.8876C18.8791 44.8167 18.8634 44.7405 18.8634 44.6636C18.8634 44.5867 18.8791 44.5105 18.9095 44.4396C18.9399 44.3687 18.9845 44.3046 19.0405 44.2509C19.0966 44.1972 19.163 44.1552 19.2359 44.1272C19.3087 44.0992 19.3865 44.0858 19.4647 44.0879H23.7599C23.8381 44.0858 23.9159 44.0992 23.9888 44.1272C24.0616 44.1552 24.128 44.1972 24.1841 44.2509C24.2401 44.3046 24.2847 44.3687 24.3151 44.4396C24.3455 44.5105 24.3612 44.5867 24.3612 44.6636C24.3612 44.7405 24.3455 44.8167 24.3151 44.8876C24.2847 44.9585 24.2401 45.0226 24.1841 45.0763C24.128 45.13 24.0616 45.172 23.9888 45.2C23.9159 45.228 23.8381 45.2414 23.7599 45.2393H19.4647ZM19.4647 41.6205C19.3094 41.6205 19.1605 41.5598 19.0507 41.4518C18.9409 41.3438 18.8793 41.1974 18.8793 41.0446C18.8793 40.8919 18.9409 40.7454 19.0507 40.6374C19.1605 40.5294 19.3094 40.4687 19.4647 40.4687H23.7599C23.9152 40.4687 24.0641 40.5294 24.1739 40.6374C24.2837 40.7454 24.3453 40.8919 24.3453 41.0446C24.3453 41.1974 24.2837 41.3438 24.1739 41.4518C24.0641 41.5598 23.9152 41.6205 23.7599 41.6205H19.4647ZM42.2759 32.9715C42.0737 32.7818 41.8259 32.6455 41.5557 32.5755C41.2856 32.6456 41.038 32.7819 40.8359 32.9715C40.5301 33.2336 40.1712 33.4287 39.783 33.544C39.3771 33.6099 38.9615 33.5875 38.5653 33.4786C38.3229 33.4012 38.0652 33.382 37.8138 33.4224C37.6811 33.4862 37.5446 33.7602 37.4081 34.0372C37.258 34.4083 37.0246 34.7413 36.7253 35.0112C36.3915 35.2413 36.0088 35.3935 35.6063 35.4562C35.3597 35.4855 35.1236 35.5714 34.917 35.707C34.8255 35.9349 34.7905 36.1809 34.8148 36.4248C34.8389 36.8261 34.7707 37.2276 34.6152 37.5994C34.4137 37.9449 34.137 38.2424 33.8049 38.4704C33.5589 38.6671 33.3113 38.8652 33.2739 39.0193C33.2863 39.2807 33.3627 39.5354 33.4967 39.7615C33.6915 40.1265 33.806 40.5277 33.8328 40.9391C33.8061 41.3505 33.6916 41.7517 33.4967 42.1166C33.3628 42.3428 33.2864 42.5974 33.2739 42.8589C33.3113 43.0155 33.5589 43.2135 33.8044 43.4098C34.1368 43.6379 34.4137 43.9355 34.6152 44.2813C34.7708 44.6531 34.839 45.0546 34.8148 45.4559C34.7904 45.6997 34.8254 45.9458 34.917 46.1736C35.1236 46.3095 35.3599 46.3954 35.6067 46.4244C36.0092 46.4875 36.3919 46.6398 36.7257 46.8699C37.025 47.1397 37.2583 47.4727 37.4081 47.8439C37.5446 48.1188 37.6811 48.3949 37.8138 48.4587C38.0653 48.4989 38.3229 48.4796 38.5653 48.4025C38.9615 48.2934 39.3771 48.271 39.783 48.3371C40.1715 48.4532 40.5304 48.6494 40.8359 48.9125C41.0379 49.1024 41.2855 49.2388 41.5557 49.309C41.826 49.2389 42.0738 49.1025 42.2759 48.9125C42.5814 48.6498 42.9403 48.4542 43.3288 48.3387C43.7346 48.2727 44.1503 48.2951 44.5465 48.4042C44.7889 48.4813 45.0465 48.5006 45.298 48.4603C45.4306 48.3966 45.5671 48.1205 45.7036 47.8456C45.83 47.4615 46.0682 47.1223 46.3886 46.87C46.709 46.6176 47.0976 46.4633 47.5063 46.4261C47.7531 46.3971 47.9894 46.3111 48.1961 46.1753C48.2874 45.9474 48.3225 45.7014 48.2982 45.4576C48.274 45.0563 48.3423 44.6547 48.4978 44.283C48.6993 43.9373 48.976 43.6397 49.3082 43.4115C49.5541 43.2152 49.8018 43.0168 49.8391 42.8606C49.8267 42.5991 49.7503 42.3445 49.6164 42.1183C49.4215 41.7534 49.3069 41.3521 49.2803 40.9408C49.307 40.5294 49.4215 40.1282 49.6164 39.7632C49.7503 39.5371 49.8267 39.2824 49.8391 39.021C49.8018 38.8647 49.5541 38.6667 49.3086 38.4721C48.9762 38.2443 48.6993 37.9468 48.4978 37.6011C48.3423 37.2293 48.2741 36.8278 48.2982 36.4265C48.3223 36.1826 48.2873 35.9367 48.1961 35.7087C47.9894 35.573 47.7531 35.4871 47.5063 35.4579C47.1038 35.395 46.7212 35.2428 46.3874 35.0129C46.088 34.7431 45.8547 34.4101 45.7049 34.0389L45.662 33.9544C45.6543 33.9405 45.6474 33.9261 45.6405 33.9122C45.5697 33.7231 45.4516 33.5547 45.2972 33.4224C45.0457 33.382 44.788 33.4012 44.5456 33.4786C44.1497 33.5874 43.7344 33.6097 43.3288 33.544C42.9404 33.4281 42.5815 33.2324 42.2759 32.9698V32.9715ZM35.3681 47.5543C35.5875 47.5879 35.7992 47.6594 35.9934 47.7654C36.1478 47.9374 36.2706 48.1346 36.3561 48.348C36.5268 48.8243 36.8606 49.2274 37.3004 49.488C37.6586 49.6428 38.0581 49.6792 38.4391 49.5919L37.2476 53.4302L36.3463 51.7612C36.2734 51.6264 36.1492 51.5257 36.0009 51.481C35.8525 51.4363 35.6922 51.4515 35.5552 51.5231L33.8585 52.4097L35.1105 48.3869C35.124 48.3542 35.1345 48.3205 35.1419 48.286L35.3694 47.5543H35.3681ZM34.1371 47.5927H16.1709V18.6526H26.5893V28.0772C26.5893 28.19 26.6231 28.3003 26.6863 28.3945C26.7495 28.4886 26.8394 28.5624 26.9449 28.6067C27.0503 28.651 27.1667 28.6638 27.2795 28.6436C27.3923 28.6234 27.4966 28.5711 27.5795 28.4931L30.881 25.8399L34.1826 28.4931C34.2654 28.5711 34.3697 28.6234 34.4826 28.6436C34.5954 28.6638 34.7118 28.651 34.8172 28.6067C34.9227 28.5624 35.0126 28.4886 35.0758 28.3945C35.139 28.3003 35.1727 28.19 35.1728 28.0772V18.6526H45.5912V32.3095C45.1695 32.2208 44.732 32.2366 44.3181 32.3555C44.0829 32.4211 43.8377 32.4449 43.594 32.4256C43.3696 32.3367 43.162 32.2111 42.9802 32.0541C42.5915 31.6915 42.0893 31.4695 41.5557 31.4241C41.0225 31.4697 40.5208 31.6918 40.1324 32.0541C39.9506 32.2111 39.743 32.3367 39.5186 32.4256C39.2749 32.4449 39.0297 32.4211 38.7945 32.3555C38.3065 32.1988 37.7786 32.2124 37.2995 32.3939C36.8596 32.6544 36.5257 33.0575 36.3553 33.5339C36.2696 33.7473 36.1469 33.9445 35.9926 34.1166C35.7882 34.2269 35.5658 34.3015 35.3354 34.3369C34.8285 34.3953 34.358 34.6255 34.0049 34.988C33.7224 35.4059 33.5959 35.9073 33.6469 36.4066C33.6613 36.6392 33.634 36.8724 33.5662 37.0957C33.4289 37.284 33.2598 37.4478 33.0662 37.58C32.626 37.8565 32.2965 38.2741 32.1335 38.7621C32.0603 39.2679 32.1628 39.7831 32.4245 40.2243C32.5451 40.4481 32.6249 40.691 32.6601 40.942C32.625 41.193 32.5452 41.436 32.4245 41.6598C32.1629 42.101 32.0604 42.6162 32.1335 43.1219C32.2966 43.6099 32.6261 44.0275 33.0662 44.3041C33.2598 44.4362 33.4289 44.6 33.5662 44.7884C33.634 45.0115 33.6613 45.2446 33.6469 45.477C33.5958 45.9765 33.7223 46.478 34.0049 46.896C34.0828 46.9917 34.1731 47.0769 34.2736 47.1494L34.1354 47.5935L34.1371 47.5927ZM48.8356 47.1485L50.7671 53.355C50.8116 53.4645 50.8209 53.5848 50.7936 53.6996C50.7664 53.8145 50.7039 53.9183 50.6147 53.9971C50.5255 54.0759 50.4139 54.1258 50.2949 54.1401C50.1759 54.1544 50.0553 54.1324 49.9494 54.077L47.5248 52.8104L46.2371 55.195C46.1831 55.2955 46.0999 55.3778 45.9981 55.4316C45.8964 55.4854 45.7807 55.5083 45.6657 55.4973C45.5507 55.4863 45.4416 55.442 45.3523 55.3699C45.263 55.2978 45.1975 55.2012 45.1641 55.0924L43.4301 49.5256C43.2731 49.6169 43.1228 49.7189 42.9802 49.8308C42.5916 50.1935 42.0894 50.4157 41.5557 50.4612C41.0224 50.4154 40.5207 50.1932 40.1324 49.8308C39.9898 49.7189 39.8395 49.6169 39.6826 49.5256L37.9502 55.0908C37.9168 55.1995 37.8513 55.2961 37.762 55.3682C37.6727 55.4403 37.5636 55.4846 37.4487 55.4956C37.3337 55.5066 37.218 55.4837 37.1162 55.4299C37.0145 55.3761 36.9313 55.2938 36.8772 55.1933L35.5895 52.8087L33.1649 54.0753C33.059 54.1307 32.9385 54.1527 32.8195 54.1384C32.7005 54.1241 32.5888 54.0742 32.4996 53.9954C32.4104 53.9166 32.3479 53.8128 32.3207 53.698C32.2934 53.5831 32.3027 53.4628 32.3472 53.3534L33.78 48.7436H15.5855C15.4303 48.7436 15.2814 48.683 15.1716 48.5751C15.0618 48.4672 15.0001 48.3208 15 48.1682V18.0767C14.9999 18.001 15.0149 17.9261 15.0443 17.8561C15.0737 17.7861 15.1168 17.7225 15.1712 17.669C15.2255 17.6154 15.2901 17.5729 15.3612 17.5439C15.4323 17.5149 15.5085 17.5 15.5855 17.5H46.1766C46.3318 17.5 46.4806 17.5606 46.5903 17.6686C46.7 17.7765 46.7616 17.9228 46.7616 18.0755V33.5483C46.8456 33.7572 46.9662 33.95 47.1179 34.1178C47.3223 34.2282 47.5446 34.3028 47.775 34.3382C48.282 34.3964 48.7526 34.6266 49.1056 34.9893C49.3881 35.4072 49.5146 35.9085 49.4636 36.4079C49.4491 36.6403 49.4764 36.8734 49.5443 37.0965C49.6814 37.2851 49.8505 37.4491 50.0443 37.5812C50.4844 37.8577 50.8139 38.2754 50.977 38.7634C51.0502 39.2691 50.9476 39.7843 50.686 40.2255C50.5653 40.4494 50.4856 40.6923 50.4503 40.9433C50.4855 41.1943 50.5653 41.4372 50.686 41.661C50.9476 42.1023 51.0501 42.6175 50.977 43.1232C50.8139 43.6112 50.4844 44.0288 50.0443 44.3054C49.8507 44.4375 49.6816 44.6013 49.5443 44.7896C49.4764 45.0127 49.4491 45.2458 49.4636 45.4783C49.5147 45.9778 49.3882 46.4793 49.1056 46.8973C49.0277 46.993 48.9373 47.0781 48.8369 47.1506L48.8356 47.1485ZM44.6722 49.5974C45.0534 49.6847 45.453 49.6483 45.8114 49.4935C46.2512 49.2329 46.585 48.8299 46.7556 48.3535C46.8412 48.1401 46.9639 47.9429 47.1183 47.7709C47.3125 47.6649 47.5242 47.5934 47.7437 47.5598L49.2537 52.4152L47.557 51.5286C47.42 51.457 47.2597 51.4418 47.1113 51.4865C46.963 51.5311 46.8387 51.6319 46.7659 51.7667L45.8646 53.4357L44.6718 49.6007L44.6722 49.5974ZM44.9426 37.6142C45.7261 38.3847 46.2138 39.3987 46.3225 40.4832C46.4312 41.5678 46.1542 42.6559 45.5388 43.5621C44.9233 44.4683 44.0075 45.1366 42.9473 45.4531C41.8871 45.7695 40.7482 45.7146 39.7246 45.2976C38.7009 44.8806 37.856 44.1274 37.3336 43.1663C36.8113 42.2052 36.6439 41.0956 36.86 40.0267C37.076 38.9578 37.6622 37.9957 38.5186 37.3042C39.375 36.6128 40.4486 36.2348 41.5565 36.2348C42.1855 36.234 42.8084 36.3554 43.3895 36.5922C43.9706 36.8289 44.4984 37.1762 44.9426 37.6142ZM41.5557 35.0809C42.9344 35.0807 44.2705 35.5508 45.3364 36.411C46.4023 37.2713 47.132 38.4684 47.4011 39.7986C47.6702 41.1287 47.4622 42.5095 46.8124 43.7056C46.1626 44.9018 45.1112 45.8393 43.8375 46.3584C42.5638 46.8775 41.1465 46.9462 39.8271 46.5526C38.5077 46.159 37.3679 45.3276 36.6018 44.2C35.8357 43.0724 35.4909 41.7183 35.6259 40.3686C35.761 39.0189 36.3676 37.7571 37.3425 36.798C37.8951 36.2528 38.5518 35.8205 39.2748 35.5258C39.9979 35.2311 40.773 35.0799 41.5557 35.0809ZM39.2903 41.5458C39.2296 41.4982 39.1792 41.4393 39.142 41.3723C39.1048 41.3053 39.0815 41.2318 39.0736 41.1559C39.0657 41.08 39.0733 41.0033 39.0959 40.9303C39.1185 40.8573 39.1557 40.7895 39.2053 40.7308C39.2549 40.6721 39.3158 40.6238 39.3847 40.5886C39.4535 40.5534 39.5288 40.5321 39.6061 40.5259C39.6834 40.5197 39.7612 40.5287 39.8349 40.5525C39.9086 40.5762 39.9768 40.6142 40.0354 40.6642L41.2003 41.6188L43.312 39.0454C43.3586 38.9829 43.4176 38.9303 43.4853 38.8908C43.5531 38.8513 43.6284 38.8257 43.7065 38.8156C43.7846 38.8054 43.864 38.8109 43.9399 38.8318C44.0158 38.8526 44.0866 38.8884 44.1481 38.9369C44.2095 38.9854 44.2604 39.0456 44.2976 39.1139C44.3347 39.1823 44.3575 39.2573 44.3644 39.3345C44.3713 39.4117 44.3622 39.4895 44.3377 39.5632C44.3133 39.6369 44.2739 39.7049 44.222 39.7632L41.7377 42.7926L41.7316 42.7998C41.6827 42.8577 41.6227 42.9055 41.555 42.9406C41.4873 42.9757 41.4132 42.9973 41.337 43.0042C41.2608 43.0111 41.1839 43.0032 41.1108 42.9808C41.0377 42.9585 40.9698 42.9222 40.911 42.8741L39.2903 41.5458Z" fill="#002100"/>
</svg>
