<svg width="68" height="70" viewBox="0 0 68 70" fill="none" xmlns="http://www.w3.org/2000/svg">
<rect x="7" y="7" width="61" height="63" rx="20" fill="#FF8E00"/>
<rect x="1" y="1" width="59" height="60" rx="19" stroke="white" stroke-width="2"/>
<path d="M32.5325 46.9927C31.3544 47.1114 30.3268 45.7608 29.5688 45.0207L28.2454 46.3545C27.9539 46.6401 27.5868 46.8349 27.1883 46.9156C26.7897 46.9963 26.3765 46.9596 25.9981 46.8097C25.6198 46.6599 25.2923 46.4033 25.0549 46.0706C24.8175 45.738 24.6802 45.3435 24.6596 44.9343C24.1293 44.9123 23.6266 44.6898 23.2517 44.3112C22.8767 43.9326 22.657 43.4256 22.6361 42.891C22.1023 42.87 21.596 42.6466 21.2184 42.2656C20.8409 41.8846 20.6199 41.374 20.5997 40.8359C20.1949 40.8172 19.804 40.681 19.4742 40.4436C19.1444 40.2063 18.8897 39.8778 18.7408 39.4979C18.5919 39.118 18.5552 38.7028 18.635 38.3024C18.7148 37.9019 18.9078 37.5332 19.1907 37.2407L20.3244 36.098C20.2697 36.0333 20.2278 35.9586 20.201 35.878L17.8542 30.9327L16.4723 29.7683C16.1709 30.0345 15.7877 30.1879 15.3872 30.2027C14.9868 30.2175 14.5935 30.0927 14.2735 29.8495L11.68 27.8592C11.4981 27.7181 11.3457 27.5422 11.2315 27.3416C11.1172 27.141 11.0434 26.9196 11.0142 26.6902C10.985 26.4608 11.001 26.2278 11.0613 26.0047C11.1216 25.7815 11.2251 25.5725 11.3657 25.3897L18.1594 16.666C18.4421 16.3061 18.8534 16.0722 19.3051 16.0142C19.7569 15.9562 20.2132 16.0788 20.5763 16.3557L23.1608 18.3441C23.5123 18.6174 23.747 19.0155 23.8173 19.4572C23.8875 19.8989 23.7879 20.351 23.5388 20.7213L24.6907 21.5728L30.3494 20.7776C30.5769 20.7786 30.8014 20.8307 31.0065 20.9301C31.2065 20.8294 31.4271 20.7772 31.6507 20.7776L37.3093 21.5728L38.4613 20.7213C38.2121 20.351 38.1125 19.8989 38.1828 19.4572C38.253 19.0155 38.4878 18.6174 38.8392 18.3441L41.4237 16.3558C41.7868 16.0787 42.2432 15.9561 42.695 16.0141C43.1468 16.0721 43.558 16.3061 43.8407 16.666L50.6344 25.3891C50.7749 25.5718 50.8783 25.7814 50.9386 26.0044C50.9989 26.2274 51.015 26.4603 50.9859 26.6896C50.9569 26.9189 50.8832 27.1402 50.7692 27.3408C50.6551 27.5414 50.503 27.7173 50.3214 27.8585L47.7265 29.8495C47.4066 30.0928 47.0133 30.2175 46.6128 30.2027C46.2123 30.1879 45.8291 30.0345 45.5277 29.7684L44.1472 30.9314L41.9745 35.5534C42.2356 35.9244 42.3898 36.361 42.42 36.8148C42.4501 37.2687 42.3551 37.7221 42.1453 38.1249C41.9356 38.5276 41.6193 38.864 41.2316 39.0968C40.8438 39.3296 40.3997 39.4497 39.9484 39.4437C39.9533 39.7752 39.8921 40.1043 39.7684 40.4114C39.6447 40.7186 39.4611 40.9976 39.2284 41.2318C38.9957 41.4661 38.7187 41.6509 38.4138 41.7752C38.1089 41.8996 37.7824 41.9609 37.4535 41.9557C37.4615 42.2886 37.4022 42.6198 37.2792 42.929C37.1562 43.2381 36.9722 43.5189 36.7382 43.7541C36.5042 43.9894 36.2253 44.1742 35.9182 44.2975C35.6112 44.4207 35.2825 44.4797 34.9521 44.4709C34.9609 44.7975 34.905 45.1226 34.7875 45.4271C34.6701 45.7316 34.4935 46.0094 34.2682 46.2443C34.0428 46.4792 33.7733 46.6663 33.4752 46.7948C33.1772 46.9233 32.8567 46.9906 32.5325 46.9927ZM30.4753 44.0389L31.7559 45.3296C31.9634 45.5298 32.2404 45.6402 32.5276 45.637C32.8148 45.6339 33.0894 45.5175 33.2925 45.3128C33.4956 45.1081 33.6111 44.8313 33.6142 44.5418C33.6173 44.2523 33.5078 43.9731 33.3091 43.764C32.5827 43.0233 30.8944 41.33 30.1896 40.6081C29.5729 40.0017 30.5274 39.0368 31.1299 39.6604L34.2533 42.8085C34.4605 43.0084 34.7372 43.1186 35.024 43.1154C35.3108 43.1122 35.585 42.9959 35.7878 42.7914C35.9906 42.5869 36.1058 42.3106 36.1088 42.0215C36.1119 41.7324 36.0024 41.4536 35.804 41.2448C34.8182 40.2556 32.9136 38.3188 31.9325 37.333C31.3148 36.7285 32.271 35.7604 32.8728 36.3853L36.7495 40.2926C36.9567 40.4923 37.2332 40.6024 37.5199 40.5992C37.8065 40.596 38.0806 40.4798 38.2833 40.2754C38.486 40.0711 38.6013 39.7949 38.6044 39.506C38.6076 39.2171 38.4984 38.9384 38.3002 38.7296C37.1723 37.5901 34.8181 35.2183 33.6767 34.0677C33.058 33.4651 34.0159 32.4937 34.6171 33.12L39.2419 37.7806C39.4492 37.98 39.7258 38.0897 40.0124 38.0863C40.299 38.0828 40.5729 37.9664 40.7755 37.7621C40.9781 37.5577 41.0933 37.2816 41.0965 36.9927C41.0997 36.7038 40.9906 36.4252 40.7925 36.2163C39.4296 34.8423 33.8679 29.2324 32.4014 27.7557H29.3519L27.6389 30.6976C27.3511 31.1506 26.9274 31.4992 26.4294 31.6927C25.9314 31.8861 25.3851 31.9143 24.8702 31.7731C24.3552 31.632 23.8983 31.3288 23.5661 30.9078C23.2339 30.4868 23.0437 29.9699 23.0232 29.4324C22.9554 28.6597 23.8941 27.1991 24.1739 26.5108L25.909 22.9196C25.9412 22.8515 25.9852 22.7897 26.0388 22.737L24.8895 22.898L19.1646 30.5858L21.314 35.1169C21.7167 34.7897 22.2251 34.6239 22.7416 34.6513C23.2582 34.6787 23.7464 34.8974 24.1128 35.2654C24.4919 35.6461 24.7113 36.1603 24.7258 36.6995C25.2565 36.7169 25.7605 36.9379 26.1349 37.3173C26.5108 37.6946 26.73 38.2026 26.7479 38.7369C27.2831 38.7525 27.792 38.9741 28.1701 39.3561C28.5471 39.7338 28.7665 40.2433 28.7831 40.7789C29.1509 40.7986 29.5072 40.9145 29.8171 41.1151C30.127 41.3157 30.3798 41.5942 30.5505 41.9231C30.7213 42.252 30.8041 42.6201 30.7909 42.991C30.7778 43.362 30.669 43.7232 30.4753 44.0389ZM26.209 44.3177C26.0705 44.4652 25.9949 44.6615 25.9985 44.8645C26.002 45.0674 26.0843 45.2609 26.2278 45.4034C26.3713 45.5459 26.5645 45.626 26.7659 45.6265C26.9674 45.627 27.1609 45.5479 27.3052 45.4062L29.0987 43.5991L29.1 43.5972C29.1939 43.5412 29.275 43.4659 29.3381 43.3763C29.4012 43.2866 29.4449 43.1846 29.4662 43.0768C29.4876 42.969 29.4863 42.8579 29.4622 42.7507C29.4382 42.6434 29.3921 42.5425 29.3268 42.4545C29.2615 42.3664 29.1786 42.2932 29.0834 42.2396C28.9882 42.1859 28.8828 42.1531 28.7742 42.1432C28.6656 42.1334 28.5561 42.1466 28.4529 42.1822C28.3497 42.2178 28.2551 42.2748 28.1753 42.3497L26.209 44.3177ZM24.1894 42.2763C24.0505 42.4217 23.9737 42.6162 23.9754 42.8181C23.9772 43.0199 24.0574 43.2131 24.1988 43.356C24.3402 43.499 24.5316 43.5804 24.7318 43.5827C24.9321 43.5851 25.1253 43.5082 25.27 43.3686L27.2311 41.4058C27.3699 41.2581 27.446 41.0615 27.4432 40.858C27.4403 40.6545 27.3588 40.4602 27.2159 40.3164C27.0729 40.1726 26.88 40.0908 26.6781 40.0883C26.4762 40.0858 26.2813 40.1628 26.1349 40.3031L24.1894 42.2763ZM22.1517 40.2285C22.0136 40.3763 21.9381 40.5727 21.9413 40.7757C21.9445 40.9788 22.0262 41.1726 22.1689 41.316C22.3115 41.4593 22.5041 41.541 22.7056 41.5436C22.907 41.5462 23.1016 41.4696 23.2479 41.3299L25.196 39.3554C25.3387 39.2104 25.4185 39.0144 25.4181 38.8102C25.4177 38.606 25.337 38.4103 25.1937 38.2659C25.0504 38.1216 24.8562 38.0404 24.6536 38.0401C24.451 38.0398 24.2565 38.1204 24.1128 38.2644L22.1517 40.2285ZM21.7452 36.562L20.1309 38.1884C19.989 38.3317 19.9087 38.5253 19.9071 38.7277C19.9056 38.9301 19.9829 39.125 20.1226 39.2705C20.2622 39.4159 20.4529 39.5003 20.6537 39.5054C20.8544 39.5105 21.0491 39.4359 21.1958 39.2978L23.1725 37.3173C23.3177 37.1725 23.3999 36.9755 23.401 36.7697C23.4021 36.5639 23.322 36.366 23.1783 36.2197C23.0347 36.0734 22.8393 35.9905 22.6351 35.9894C22.4308 35.9883 22.2345 36.0691 22.0894 36.2138L21.7452 36.562ZM28.974 26.4153H32.6767C32.764 26.4153 32.8505 26.4327 32.9311 26.4663C33.0118 26.5 33.0851 26.5494 33.1468 26.6117L40.9899 34.5167L42.8367 30.5871L37.1106 22.8981L31.6299 22.1277C31.7293 22.1007 27.0772 23.7247 26.9843 23.7555C26.996 23.7945 24.0592 29.6051 24.3531 29.4325C24.3703 29.6765 24.462 29.9091 24.6157 30.0984C24.7695 30.2877 24.9776 30.4244 25.2115 30.4896C25.4454 30.5548 25.6936 30.5454 25.922 30.4626C26.1504 30.3799 26.3477 30.2279 26.4869 30.0275L28.4026 26.7432C28.4613 26.6432 28.5449 26.5604 28.6451 26.5029C28.7453 26.4454 28.8586 26.4152 28.974 26.4153ZM38.4145 22.4176L43.7212 29.5425L44.6784 28.7355L39.2795 21.7796L38.4145 22.4176ZM17.3152 28.731L18.2789 29.5425L23.5855 22.4176L22.7206 21.7788L17.3152 28.731ZM19.5243 17.3381C19.4631 17.338 19.4026 17.3518 19.3475 17.3787C19.2924 17.4056 19.244 17.4448 19.2062 17.4933L12.4125 26.2164C12.3796 26.2591 12.3554 26.3079 12.3414 26.36C12.3273 26.4122 12.3236 26.4666 12.3305 26.5202C12.3374 26.5738 12.3547 26.6255 12.3815 26.6723C12.4082 26.7191 12.4439 26.7601 12.4865 26.793L15.0788 28.7826C15.1631 28.8483 15.2698 28.8775 15.3755 28.8639C15.4812 28.8503 15.5772 28.7949 15.6424 28.71L22.4257 19.9856C22.4586 19.943 22.4828 19.8943 22.4969 19.8422C22.5111 19.7902 22.5149 19.7359 22.5081 19.6823C22.5013 19.6288 22.4842 19.5772 22.4575 19.5304C22.4309 19.4836 22.3954 19.4425 22.3529 19.4096L19.7685 17.4213C19.6985 17.3671 19.6126 17.3378 19.5243 17.3381ZM39.9289 20.4424L46.3577 28.71C46.4229 28.7949 46.5189 28.8502 46.6246 28.8638C46.7303 28.8774 46.837 28.8483 46.9213 28.7827C46.9935 28.6734 49.8638 26.6717 49.6708 26.5201C49.6775 26.4664 49.6737 26.4118 49.6594 26.3596C49.6451 26.3073 49.6207 26.2585 49.5876 26.2158L42.7939 17.4933C42.7282 17.4094 42.6325 17.3549 42.5273 17.3415C42.4222 17.328 42.316 17.3567 42.2315 17.4213L39.6471 19.4096C39.2367 19.727 39.7285 20.1718 39.9289 20.4424Z" fill="#002100"/>
</svg>
