<svg width="68" height="70" viewBox="0 0 68 70" fill="none" xmlns="http://www.w3.org/2000/svg">
<rect x="7" y="7" width="61" height="63" rx="20" fill="#FF8E00"/>
<rect x="1" y="1" width="59" height="60" rx="19" stroke="white" stroke-width="2"/>
<path d="M41.2303 24.5337C41.9054 25.0103 42.5408 25.4868 43.2159 25.9633C43.6527 26.281 44.2881 26.1619 44.5661 25.6457C45.7177 23.5806 45.5192 21.0788 44.1293 19.1727C44.8044 18.4181 44.5661 17.2665 43.7719 16.6708C42.9776 16.0752 41.7863 16.234 41.27 17.1077C40.4758 16.8694 39.7213 16.79 38.8873 16.8694C38.8873 16.7503 38.8873 16.6311 38.8873 16.4723C38.8873 14.9632 37.6563 13.7322 36.1472 13.7322C34.3602 13.7322 32.6129 13.7322 30.8259 13.7322C29.0389 13.7322 27.2916 13.7322 25.5045 13.7322C23.9955 13.7322 22.7644 14.9632 22.7644 16.4723C22.7644 16.5914 22.7644 16.7105 22.7644 16.8694C21.9305 16.79 21.176 16.9091 20.4215 17.1871C19.9052 16.3134 18.7139 16.1546 17.9196 16.7503C17.1254 17.3459 16.8871 18.4976 17.5622 19.2521C16.1326 21.1185 15.9738 23.6601 17.1254 25.7251C17.4034 26.2016 17.999 26.3605 18.4756 26.0428C19.1507 25.5662 19.7861 25.0897 20.4612 24.6132C14.5044 30.6493 15.0604 40.4581 21.6128 45.8588L22.6453 46.6134C25.0677 48.2813 27.9269 49.1549 30.8259 49.1549C33.7645 49.1549 36.6238 48.2813 39.0065 46.6134L40.039 45.8588C46.5914 40.4581 47.1473 30.6493 41.2303 24.5337ZM42.2628 17.5842C42.3025 17.5445 42.382 17.5048 42.4614 17.4651C42.5011 17.4651 42.5408 17.4254 42.5805 17.4254C42.6202 17.4254 42.6599 17.4254 42.6996 17.4254C42.7394 17.4254 42.7791 17.4254 42.8188 17.4254C42.8585 17.4254 42.8982 17.4651 42.9379 17.4651C42.9776 17.4651 43.0173 17.5048 43.0571 17.5445C43.0968 17.5842 43.1365 17.5842 43.1762 17.6239C43.2159 17.6636 43.2556 17.7033 43.2953 17.743C43.335 17.7828 43.335 17.8225 43.3747 17.8622C43.3747 17.9019 43.4145 17.9416 43.4145 17.9813C43.4145 18.021 43.4145 18.0607 43.4145 18.1005C43.4145 18.1799 43.4145 18.2593 43.3747 18.299C43.3747 18.299 43.3747 18.3387 43.335 18.3387C43.0571 18.1005 42.6599 17.8225 42.2628 17.5842ZM42.2231 18.8153C44.2087 20.2449 44.8441 22.8658 43.7321 25.05C41.1112 23.1835 38.4902 21.2774 35.8693 19.4109C37.5371 17.6239 40.2375 17.3856 42.2231 18.8153ZM23.7969 16.4723C23.7969 15.5192 24.5515 14.7647 25.5045 14.7647C27.2916 14.7647 29.0389 14.7647 30.8259 14.7647C32.6129 14.7647 34.3602 14.7647 36.1472 14.7647C37.1003 14.7647 37.8548 15.5192 37.8548 16.4723C37.8548 16.6708 37.8548 16.8297 37.8548 17.0282C36.6635 17.3459 35.7898 17.8622 34.9559 18.7755C34.5985 19.1727 34.6382 19.8081 35.1147 20.1257C35.7898 20.6023 36.4252 21.0788 37.1003 21.5554C35.2339 20.6817 33.4071 20.2052 31.3818 20.1655C31.3818 19.9669 31.3818 19.7683 31.3818 19.5698C31.3818 19.3712 31.4613 19.2918 31.6598 19.2918C31.7393 19.2918 31.8584 19.2918 31.9378 19.2918C32.2158 19.2918 32.4938 19.0535 32.4938 18.7358C32.4938 18.4579 32.2555 18.1799 31.9378 18.1799C31.5804 18.1799 31.223 18.1799 30.8656 18.1799C30.5082 18.1799 30.1508 18.1799 29.7934 18.1799C29.5154 18.1799 29.2374 18.4181 29.2374 18.7358C29.2374 19.0138 29.4757 19.2918 29.7934 19.2918C29.8728 19.2918 29.9919 19.2918 30.0714 19.2918C30.2699 19.2918 30.3493 19.3712 30.3493 19.5698C30.3493 19.7683 30.3493 19.9669 30.3493 20.1655C28.3241 20.2449 26.4973 20.6817 24.6309 21.5554C25.306 21.0788 25.9414 20.6023 26.6165 20.1257C27.0533 19.8081 27.1327 19.1727 26.7753 18.7755C25.9414 17.8622 25.0677 17.3459 23.8764 17.0282C23.7969 16.8297 23.7969 16.6708 23.7969 16.4723ZM18.1976 18.021C18.1976 17.9813 18.2373 17.9416 18.2373 17.9019C18.277 17.8622 18.277 17.8225 18.3167 17.7828C18.3565 17.743 18.3962 17.7033 18.4359 17.6636C18.4756 17.6239 18.5153 17.5842 18.555 17.5842C18.5947 17.5445 18.6344 17.5445 18.6741 17.5048C18.7139 17.5048 18.7536 17.4651 18.7933 17.4651C18.833 17.4651 18.8727 17.4651 18.9124 17.4651C18.9521 17.4651 18.9918 17.4651 19.0315 17.4651C19.0713 17.4651 19.111 17.4651 19.1507 17.5048C19.2301 17.5445 19.3095 17.5842 19.3492 17.6239C18.9124 17.8622 18.555 18.1402 18.1976 18.4579C18.1976 18.4579 18.1976 18.4181 18.1579 18.4181C18.1182 18.3387 18.1182 18.2593 18.1182 18.2196C18.1976 18.1005 18.1976 18.0607 18.1976 18.021ZM17.9196 25.0103C16.8077 22.8658 17.4431 20.2052 19.4287 18.7755C21.4142 17.3459 24.1146 17.5842 25.7825 19.3315C23.2013 21.2774 20.5803 23.1438 17.9196 25.0103ZM30.8259 48.1224C23.3998 48.1224 17.3637 42.0862 17.3637 34.6602C17.3637 27.2341 23.3998 21.198 30.8259 21.198C38.252 21.198 44.2881 27.2341 44.2881 34.6602C44.2881 42.0862 38.252 48.1224 30.8259 48.1224Z" fill="#002100"/>
<path d="M30.8249 22.1113C23.9548 22.1113 18.3555 27.6709 18.3555 34.5808C18.3555 41.4509 23.9151 47.0502 30.8249 47.0502C37.7347 47.0502 43.2943 41.4906 43.2943 34.5808C43.2943 27.6709 37.695 22.1113 30.8249 22.1113ZM40.9514 39.783C40.316 39.4256 39.6806 39.0682 39.0452 38.7108C38.8069 38.5519 38.4495 38.6313 38.2907 38.9093C38.1318 39.1476 38.2113 39.505 38.4892 39.6638C39.1246 40.0213 39.76 40.3787 40.3954 40.7361C39.482 42.1657 38.3701 43.2379 36.9802 44.1513C36.6228 43.5159 36.2654 42.8805 35.908 42.2451C35.7491 42.0068 35.4314 41.8877 35.1535 42.0465C34.8755 42.2054 34.7961 42.5231 34.9549 42.8011C35.3123 43.4364 35.6697 44.0718 36.0271 44.7072C34.5181 45.5014 33.009 45.8986 31.3412 45.978C31.3412 45.2632 31.3412 44.5087 31.3412 43.7939C31.3412 43.5159 31.1029 43.2379 30.7852 43.2379C30.4675 43.2379 30.2292 43.4762 30.2292 43.7939C30.2292 44.5087 30.2292 45.2632 30.2292 45.978C28.5216 45.8986 27.0523 45.5014 25.5433 44.7072C25.9007 44.0718 26.2581 43.4364 26.6155 42.8011C26.7743 42.5628 26.6949 42.2054 26.4169 42.0465C26.1389 41.8877 25.8212 41.9671 25.6624 42.2451C25.305 42.8805 24.9476 43.5159 24.5902 44.1513C23.1606 43.2379 22.0884 42.126 21.175 40.7361C21.8104 40.3787 22.4458 40.0213 23.0811 39.6638C23.3194 39.505 23.4386 39.1873 23.2797 38.9093C23.1209 38.6313 22.8032 38.5519 22.5252 38.7108C21.8898 39.0682 21.2544 39.4256 20.619 39.783C19.8248 38.2739 19.4277 36.7649 19.3483 35.097C20.0631 35.097 20.8176 35.097 21.5324 35.097C21.8104 35.097 22.0884 34.8587 22.0884 34.5411C22.0884 34.2631 21.8501 33.9851 21.5324 33.9851C20.8176 33.9851 20.0631 33.9851 19.3483 33.9851C19.4277 32.2775 19.8248 30.8082 20.619 29.2991C21.2544 29.6565 21.8898 30.0139 22.5252 30.3713C22.7635 30.5302 23.1209 30.4508 23.2797 30.1728C23.4386 29.9345 23.3591 29.5771 23.0811 29.4183C22.4458 29.0609 21.8104 28.7035 21.175 28.346C22.0884 26.9164 23.2003 25.8442 24.5902 24.9308C24.9476 25.5662 25.305 26.2016 25.6624 26.837C25.8212 27.0753 26.1389 27.1944 26.4169 27.0356C26.6552 26.8767 26.7743 26.559 26.6155 26.281C26.2581 25.6457 25.9007 25.0103 25.5433 24.3749C27.0523 23.5807 28.5613 23.1835 30.2292 23.1041C30.2292 23.8189 30.2292 24.5734 30.2292 25.2883C30.2292 25.5662 30.4675 25.8442 30.7852 25.8442C31.1029 25.8442 31.3412 25.6059 31.3412 25.2883C31.3412 24.5734 31.3412 23.8189 31.3412 23.1041C33.0488 23.1835 34.5181 23.5807 36.0271 24.3749C35.6697 25.0103 35.3123 25.6457 34.9549 26.281C34.7961 26.5193 34.8755 26.8767 35.1535 27.0356C35.3917 27.1944 35.7491 27.115 35.908 26.837C36.2654 26.2016 36.6228 25.5662 36.9802 24.9308C38.4098 25.8442 39.482 26.9561 40.3954 28.346C39.76 28.7035 39.1246 29.0609 38.4892 29.4183C38.251 29.5771 38.1318 29.8948 38.2907 30.1728C38.4495 30.411 38.7672 30.5302 39.0452 30.3713C39.6806 30.0139 40.316 29.6565 40.9514 29.2991C41.7456 30.8082 42.1427 32.3172 42.2221 33.9851C41.5073 33.9851 40.7528 33.9851 40.038 33.9851C39.76 33.9851 39.482 34.2234 39.482 34.5411C39.482 34.819 39.7203 35.097 40.038 35.097C40.7528 35.097 41.5073 35.097 42.2221 35.097C42.1427 36.8046 41.7456 38.3137 40.9514 39.783Z" fill="#002100"/>
<path d="M37.8539 33.7468C36.0272 33.7468 34.1607 33.7468 32.334 33.7468C32.1752 33.4688 31.9766 33.2703 31.6986 33.1114C31.6986 31.2847 31.6986 29.4182 31.6986 27.5915C31.6986 27.115 31.3412 26.7576 30.8647 26.7576C30.3881 26.7576 30.0307 27.115 30.0307 27.5915C30.0307 29.4182 30.0307 31.2847 30.0307 33.1114C29.038 33.6674 28.8791 35.0176 29.6733 35.8118C30.4676 36.606 31.8178 36.4075 32.3737 35.4544C34.2005 35.4544 36.0669 35.4544 37.8936 35.4544C38.3702 35.4544 38.7276 35.097 38.7276 34.6205C38.6879 34.1042 38.2908 33.7468 37.8539 33.7468ZM31.4604 34.6205C31.4206 34.9779 31.103 35.2161 30.7455 35.2161C30.3881 35.1764 30.1499 34.8587 30.1499 34.5013C30.1896 34.1439 30.5073 33.9057 30.8647 33.9057C31.2618 33.9454 31.5001 34.2631 31.4604 34.6205Z" fill="#002100"/>
</svg>
